<svg xmlns="http://www.w3.org/2000/svg" xml:space="preserve" width="18rem" height="auto" version="1.1" style="shape-rendering:geometricPrecision; text-rendering:geometricPrecision; image-rendering:optimizeQuality; fill-rule:evenodd; clip-rule:evenodd"
viewBox="-100 50 550 450"
fill="#adadad">
  <path d="M23.2 89.55l-23.41 3.51 0 -48.96c4.08,-2.74 8.07,-5.69 12.02,-8.78 3.95,-3.09 7.67,-6.82 11.25,-11.24l0.14 65.47zm6.34 -70.18c2.05,-2.32 3.77,-4.92 5.18,-7.8 1.45,-2.87 2.9,-6.39 4.39,-10.53l30.57 0 0 366.96 -40 0 -0.14 -348.63zm127.59 355.44c-10.52,-0.42 -19.55,-3.79 -27.03,-10.11 -7.49,-6.32 -13.65,-14.61 -18.42,-25.01 -4.76,-10.32 -8.3,-22.34 -10.56,-35.89 -2.27,-13.56 -3.41,-28.03 -3.41,-43.21l0 -151.51c0,-15.46 1.09,-30.07 3.27,-43.7 2.18,-13.62 5.67,-25.64 10.43,-36.03 4.81,-10.33 10.93,-18.62 18.46,-24.8 7.53,-6.18 16.65,-9.48 27.26,-9.9l0 54.79c-4.17,0.84 -7.48,3.23 -9.98,7.16 -2.45,4.01 -4.35,8.85 -5.62,14.54 -1.32,5.69 -2.13,11.73 -2.45,18.2 -0.36,6.46 -0.54,12.5 -0.54,18.12l0 154.75c0,5.62 0.22,11.66 0.63,18.12 0.45,6.47 1.36,12.51 2.68,18.13 1.31,5.62 3.22,10.46 5.67,14.47 2.4,4.07 5.62,6.53 9.61,7.3l0 54.58zm6.62 -55c3.72,-1.05 6.76,-3.65 9.12,-7.8 2.36,-4.14 4.17,-8.92 5.44,-14.47 1.32,-5.62 2.18,-11.52 2.59,-17.7 0.45,-6.25 0.68,-12.15 0.68,-17.63l0 -154.75c0,-5.48 -0.18,-11.45 -0.59,-17.77 -0.41,-6.4 -1.23,-12.37 -2.45,-17.92 -1.27,-5.54 -3.04,-10.39 -5.4,-14.39 -2.36,-4.08 -5.49,-6.68 -9.39,-7.73l0 -54.79c10.48,0.7 19.37,4.21 26.72,10.39 7.35,6.25 13.38,14.54 18.09,24.8 4.68,10.33 8.12,22.2 10.3,35.75 2.18,13.49 3.27,27.96 3.27,43.28l0 151.51c0,14.97 -1.14,29.16 -3.41,42.57 -2.26,13.49 -5.8,25.36 -10.56,35.62 -4.81,10.25 -10.84,18.61 -18.19,25.01 -7.39,6.39 -16.1,9.97 -26.22,10.81l0 -54.79zm142.87 55c-10.52,-0.42 -19.54,-3.79 -27.03,-10.11 -7.48,-6.32 -13.65,-14.61 -18.41,-25.01 -4.76,-10.32 -8.3,-22.34 -10.57,-35.89 -2.27,-13.56 -3.4,-28.03 -3.4,-43.21l0 -151.51c0,-15.46 1.09,-30.07 3.26,-43.7 2.18,-13.62 5.67,-25.64 10.44,-36.03 4.8,-10.33 10.93,-18.62 18.45,-24.8 7.53,-6.18 16.65,-9.48 27.26,-9.9l0 54.79c-4.17,0.84 -7.48,3.23 -9.97,7.16 -2.45,4.01 -4.36,8.85 -5.63,14.54 -1.31,5.69 -2.13,11.73 -2.45,18.2 -0.36,6.46 -0.54,12.5 -0.54,18.12l0 154.75c0,5.62 0.23,11.66 0.63,18.12 0.46,6.47 1.36,12.51 2.68,18.13 1.31,5.62 3.22,10.46 5.67,14.47 2.4,4.07 5.62,6.53 9.61,7.3l0 54.58zm6.63 -55c3.72,-1.05 6.75,-3.65 9.11,-7.8 2.36,-4.14 4.18,-8.92 5.45,-14.47 1.31,-5.62 2.17,-11.52 2.58,-17.7 0.45,-6.25 0.68,-12.15 0.68,-17.63l0 -154.75c0,-5.48 -0.18,-11.45 -0.59,-17.77 -0.41,-6.4 -1.22,-12.37 -2.45,-17.92 -1.27,-5.54 -3.04,-10.39 -5.39,-14.39 -2.36,-4.08 -5.49,-6.68 -9.39,-7.73l0 -54.79c10.47,0.7 19.36,4.21 26.71,10.39 7.35,6.25 13.38,14.54 18.1,24.8 4.67,10.33 8.12,22.2 10.29,35.75 2.18,13.49 3.27,27.96 3.27,43.28l0 151.51c0,14.97 -1.14,29.16 -3.4,42.57 -2.27,13.49 -5.81,25.36 -10.57,35.62 -4.81,10.25 -10.84,18.61 -18.19,25.01 -7.39,6.39 -16.1,9.97 -26.21,10.81l0 -54.79zm142.87 55c-10.53,-0.42 -19.55,-3.79 -27.04,-10.11 -7.48,-6.32 -13.65,-14.61 -18.41,-25.01 -4.76,-10.32 -8.3,-22.34 -10.57,-35.89 -2.27,-13.56 -3.4,-28.03 -3.4,-43.21l0 -151.51c0,-15.46 1.09,-30.07 3.27,-43.7 2.17,-13.62 5.67,-25.64 10.43,-36.03 4.81,-10.33 10.93,-18.62 18.46,-24.8 7.53,-6.18 16.64,-9.48 27.26,-9.9l0 54.79c-4.18,0.84 -7.49,3.23 -9.98,7.16 -2.45,4.01 -4.36,8.85 -5.62,14.54 -1.32,5.69 -2.14,11.73 -2.45,18.2 -0.37,6.46 -0.55,12.5 -0.55,18.12l0 154.75c0,5.62 0.23,11.66 0.64,18.12 0.45,6.47 1.36,12.51 2.67,18.13 1.32,5.62 3.22,10.46 5.67,14.47 2.41,4.07 5.63,6.53 9.62,7.3l0 54.58zm6.62 -55c3.72,-1.05 6.76,-3.65 9.12,-7.8 2.35,-4.14 4.17,-8.92 5.44,-14.47 1.31,-5.62 2.18,-11.52 2.58,-17.7 0.46,-6.25 0.68,-12.15 0.68,-17.63l0 -154.75c0,-5.48 -0.18,-11.45 -0.59,-17.77 -0.4,-6.4 -1.22,-12.37 -2.44,-17.92 -1.28,-5.54 -3.04,-10.39 -5.4,-14.39 -2.36,-4.08 -5.49,-6.68 -9.39,-7.73l0 -54.79c10.48,0.7 19.37,4.21 26.71,10.39 7.35,6.25 13.38,14.54 18.1,24.8 4.67,10.33 8.12,22.2 10.3,35.75 2.17,13.49 3.26,27.96 3.26,43.28l0 151.51c0,14.97 -1.13,29.16 -3.4,42.57 -2.27,13.49 -5.8,25.36 -10.57,35.62 -4.81,10.25 -10.84,18.61 -18.19,25.01 -7.39,6.39 -16.1,9.97 -26.21,10.81l0 -54.79z"/>
</svg>
