<svg xmlns="http://www.w3.org/2000/svg" xml:space="preserve" width="18rem" height="auto" version="1.1" style="shape-rendering:geometricPrecision; text-rendering:geometricPrecision; image-rendering:optimizeQuality; fill-rule:evenodd; clip-rule:evenodd"
viewBox="-100 50 550 450"
fill="#bfff6c">
  <path d="M70.36 57.14c-4.68,1.12 -8.44,3.86 -11.18,8.36 -2.69,4.43 -4.78,9.76 -6.18,15.95 -1.45,6.18 -2.36,12.78 -2.79,19.8 -0.38,7.1 -0.65,13.77 -0.76,20.1l-47.71 0 0 -19.53c0,-14.26 1.45,-27.4 4.35,-39.34 2.85,-11.94 7.14,-22.2 12.89,-30.84 5.7,-8.64 12.85,-15.52 21.39,-20.51 8.55,-4.99 18.59,-7.87 29.99,-8.5l0 54.51zm0 325.8c-13.22,-0.56 -24.18,-3.79 -32.89,-9.62 -8.71,-5.83 -15.64,-13.56 -20.85,-23.26 -5.21,-9.62 -8.92,-20.93 -11.18,-33.85 -2.25,-12.86 -3.49,-26.7 -3.7,-41.52l0 -10.96 47.71 0c0,6.75 0.22,13.7 0.6,20.79 0.43,7.17 1.34,13.77 2.79,19.81 1.4,5.97 3.49,11.17 6.18,15.53 2.74,4.28 6.55,7.02 11.34,8.08l0 55zm7.9 -54.79c4.73,-0.64 8.49,-2.74 11.23,-6.25 2.79,-3.52 4.94,-7.94 6.39,-13.28 1.45,-5.34 2.42,-11.38 2.85,-17.98 0.43,-6.68 0.64,-13.42 0.64,-20.3 0,-8.93 -0.8,-17.07 -2.31,-24.38 -1.5,-7.38 -3.87,-13.56 -6.98,-18.76 -3.17,-5.12 -7.2,-9.13 -12.15,-11.94 -4.94,-2.81 -10.85,-4.21 -17.78,-4.21l0 -61.89c6.28,0 11.87,-0.7 16.76,-1.96 4.89,-1.34 8.98,-3.73 12.31,-7.24 3.28,-3.51 5.8,-8.29 7.52,-14.4 1.72,-6.11 2.63,-14.05 2.63,-23.74 0,-5.9 -0.32,-11.45 -0.96,-16.72 -0.65,-5.2 -1.78,-9.77 -3.39,-13.77 -1.61,-4 -3.81,-7.17 -6.55,-9.69 -2.69,-2.46 -6.13,-4.01 -10.21,-4.71l0 -54.51c11.44,0.42 21.44,3.16 30.04,8.22 8.65,5.06 15.85,12.01 21.65,20.79 5.86,8.78 10.21,19.11 13.17,31.05 2.95,11.94 4.4,25.15 4.4,39.55 0,8.22 -0.64,16.29 -1.99,24.16 -1.28,7.87 -3.27,15.32 -5.91,22.2 -2.58,6.95 -5.8,13.13 -9.56,18.61 -3.82,5.55 -8.17,10.05 -13.06,13.63 10.16,8.92 17.79,21.08 22.89,36.39 5.11,15.38 7.63,33.08 7.63,53.11 0,15.8 -1.18,30.41 -3.6,43.97 -2.42,13.49 -6.39,25.29 -11.93,35.26 -5.48,10.05 -12.63,17.98 -21.49,23.88 -8.82,5.91 -19.56,9.14 -32.24,9.7l0 -54.79zm165.45 54.79c-12.47,-0.42 -23.16,-3.79 -32.03,-10.12 -8.86,-6.32 -16.17,-14.61 -21.81,-25 -5.64,-10.33 -9.84,-22.34 -12.52,-35.9 -2.69,-13.56 -4.03,-28.03 -4.03,-43.2l0 -151.52c0,-15.45 1.29,-30.06 3.87,-43.69 2.57,-13.63 6.71,-25.64 12.36,-36.04 5.69,-10.32 12.95,-18.61 21.87,-24.79 8.92,-6.19 19.72,-9.49 32.29,-9.91l0 54.79c-4.94,0.85 -8.87,3.23 -11.82,7.17 -2.9,4 -5.16,8.85 -6.66,14.54 -1.56,5.69 -2.53,11.73 -2.91,18.19 -0.43,6.46 -0.64,12.51 -0.64,18.12l0 154.76c0,5.62 0.27,11.66 0.75,18.12 0.54,6.46 1.61,12.5 3.17,18.12 1.56,5.62 3.82,10.47 6.72,14.47 2.85,4.08 6.66,6.54 11.39,7.31l0 54.58zm7.85 -55c4.4,-1.06 8,-3.66 10.8,-7.8 2.79,-4.15 4.94,-8.92 6.45,-14.47 1.55,-5.62 2.58,-11.52 3.06,-17.7 0.54,-6.25 0.8,-12.16 0.8,-17.63l0 -154.76c0,-5.47 -0.21,-11.44 -0.69,-17.77 -0.49,-6.39 -1.45,-12.36 -2.91,-17.91 -1.5,-5.55 -3.6,-10.4 -6.39,-14.4 -2.79,-4.07 -6.5,-6.67 -11.12,-7.73l0 -54.79c12.41,0.7 22.94,4.22 31.65,10.4 8.7,6.25 15.85,14.54 21.44,24.79 5.53,10.33 9.62,22.2 12.2,35.76 2.58,13.49 3.86,27.96 3.86,43.27l0 151.52c0,14.96 -1.34,29.15 -4.02,42.57 -2.69,13.49 -6.88,25.36 -12.53,35.61 -5.69,10.26 -12.84,18.62 -21.54,25.01 -8.76,6.39 -19.08,9.98 -31.06,10.82l0 -54.79zm169.27 55c-12.47,-0.42 -23.16,-3.79 -32.03,-10.12 -8.87,-6.32 -16.18,-14.61 -21.82,-25 -5.64,-10.33 -9.83,-22.34 -12.52,-35.9 -2.68,-13.56 -4.03,-28.03 -4.03,-43.2l0 -151.52c0,-15.45 1.29,-30.06 3.87,-43.69 2.58,-13.63 6.72,-25.64 12.36,-36.04 5.7,-10.32 12.95,-18.61 21.87,-24.79 8.92,-6.19 19.72,-9.49 32.3,-9.91l0 54.79c-4.95,0.85 -8.87,3.23 -11.83,7.17 -2.9,4 -5.15,8.85 -6.66,14.54 -1.56,5.69 -2.53,11.73 -2.9,18.19 -0.43,6.46 -0.65,12.51 -0.65,18.12l0 154.76c0,5.62 0.27,11.66 0.76,18.12 0.53,6.46 1.61,12.5 3.17,18.12 1.56,5.62 3.81,10.47 6.71,14.47 2.85,4.08 6.67,6.54 11.4,7.31l0 54.58zm7.84 -55c4.41,-1.06 8.01,-3.66 10.8,-7.8 2.8,-4.15 4.95,-8.92 6.45,-14.47 1.56,-5.62 2.58,-11.52 3.06,-17.7 0.54,-6.25 0.81,-12.16 0.81,-17.63l0 -154.76c0,-5.47 -0.21,-11.44 -0.7,-17.77 -0.48,-6.39 -1.45,-12.36 -2.9,-17.91 -1.5,-5.55 -3.6,-10.4 -6.39,-14.4 -2.8,-4.07 -6.51,-6.67 -11.13,-7.73l0 -54.79c12.41,0.7 22.95,4.22 31.65,10.4 8.71,6.25 15.86,14.54 21.44,24.79 5.54,10.33 9.62,22.2 12.2,35.76 2.58,13.49 3.87,27.96 3.87,43.27l0 151.52c0,14.96 -1.34,29.15 -4.03,42.57 -2.69,13.49 -6.88,25.36 -12.52,35.61 -5.7,10.26 -12.84,18.62 -21.55,25.01 -8.76,6.39 -19.08,9.98 -31.06,10.82l0 -54.79z"/>
</svg>
