<svg xmlns="http://www.w3.org/2000/svg" xml:space="preserve" width="18rem" height="auto" version="1.1" style="shape-rendering:geometricPrecision; text-rendering:geometricPrecision; image-rendering:optimizeQuality; fill-rule:evenodd; clip-rule:evenodd"
viewBox="-100 50 550 450"
fill="#b68fff">
  <path d="M112.43 9.37l13.71 0 0 366.76 -47.56 0 0 -242 33.85 -124.76zm-41.75 273.54l-70.5 0 0 -50.02 67.7 -223.52 36.17 0 -60.72 223.52 27.35 0 0 50.02zm63.3 -50.02l18.59 0 0 50.02 -18.59 0 0 -50.02zm108.33 150.05c-12.46,-0.42 -23.16,-3.79 -32.02,-10.12 -8.87,-6.32 -16.18,-14.61 -21.82,-25 -5.64,-10.33 -9.83,-22.34 -12.52,-35.9 -2.69,-13.56 -4.03,-28.03 -4.03,-43.2l0 -151.52c0,-15.45 1.29,-30.06 3.87,-43.69 2.58,-13.63 6.71,-25.64 12.36,-36.04 5.69,-10.32 12.95,-18.61 21.87,-24.79 8.92,-6.19 19.72,-9.49 32.29,-9.91l0 54.79c-4.94,0.85 -8.86,3.23 -11.82,7.17 -2.9,4 -5.16,8.85 -6.66,14.54 -1.56,5.69 -2.53,11.73 -2.9,18.19 -0.43,6.46 -0.65,12.51 -0.65,18.12l0 154.76c0,5.62 0.27,11.66 0.75,18.12 0.54,6.46 1.62,12.5 3.17,18.12 1.56,5.62 3.82,10.47 6.72,14.47 2.85,4.08 6.66,6.54 11.39,7.31l0 54.58zm7.85 -55c4.4,-1.06 8.01,-3.66 10.8,-7.8 2.79,-4.15 4.94,-8.92 6.45,-14.47 1.56,-5.62 2.58,-11.52 3.06,-17.7 0.54,-6.25 0.81,-12.16 0.81,-17.63l0 -154.76c0,-5.47 -0.22,-11.44 -0.7,-17.77 -0.48,-6.39 -1.45,-12.36 -2.9,-17.91 -1.51,-5.55 -3.6,-10.4 -6.4,-14.4 -2.79,-4.07 -6.5,-6.67 -11.12,-7.73l0 -54.79c12.41,0.7 22.94,4.22 31.65,10.4 8.71,6.25 15.85,14.54 21.44,24.79 5.54,10.33 9.62,22.2 12.2,35.76 2.58,13.49 3.87,27.96 3.87,43.27l0 151.52c0,14.96 -1.35,29.15 -4.03,42.57 -2.69,13.49 -6.88,25.36 -12.52,35.61 -5.7,10.26 -12.85,18.62 -21.55,25.01 -8.76,6.39 -19.08,9.98 -31.06,10.82l0 -54.79zm169.27 55c-12.47,-0.42 -23.16,-3.79 -32.03,-10.12 -8.86,-6.32 -16.17,-14.61 -21.82,-25 -5.64,-10.33 -9.83,-22.34 -12.52,-35.9 -2.68,-13.56 -4.03,-28.03 -4.03,-43.2l0 -151.52c0,-15.45 1.29,-30.06 3.87,-43.69 2.58,-13.63 6.72,-25.64 12.36,-36.04 5.7,-10.32 12.95,-18.61 21.87,-24.79 8.92,-6.19 19.72,-9.49 32.3,-9.91l0 54.79c-4.95,0.85 -8.87,3.23 -11.82,7.17 -2.91,4 -5.16,8.85 -6.67,14.54 -1.55,5.69 -2.52,11.73 -2.9,18.19 -0.43,6.46 -0.64,12.51 -0.64,18.12l0 154.76c0,5.62 0.27,11.66 0.75,18.12 0.54,6.46 1.61,12.5 3.17,18.12 1.56,5.62 3.82,10.47 6.72,14.47 2.85,4.08 6.66,6.54 11.39,7.31l0 54.58zm7.84 -55c4.41,-1.06 8.01,-3.66 10.81,-7.8 2.79,-4.15 4.94,-8.92 6.44,-14.47 1.56,-5.62 2.58,-11.52 3.07,-17.7 0.53,-6.25 0.8,-12.16 0.8,-17.63l0 -154.76c0,-5.47 -0.21,-11.44 -0.7,-17.77 -0.48,-6.39 -1.45,-12.36 -2.9,-17.91 -1.5,-5.55 -3.6,-10.4 -6.39,-14.4 -2.8,-4.07 -6.5,-6.67 -11.13,-7.73l0 -54.79c12.42,0.7 22.95,4.22 31.66,10.4 8.7,6.25 15.85,14.54 21.44,24.79 5.53,10.33 9.61,22.2 12.19,35.76 2.58,13.49 3.87,27.96 3.87,43.27l0 151.52c0,14.96 -1.34,29.15 -4.03,42.57 -2.68,13.49 -6.88,25.36 -12.52,35.61 -5.69,10.26 -12.84,18.62 -21.55,25.01 -8.75,6.39 -19.07,9.98 -31.06,10.82l0 -54.79z"/>
</svg>
