<svg xmlns="http://www.w3.org/2000/svg" xml:space="preserve" width="18rem" height="auto" version="1.1" style="shape-rendering:geometricPrecision; text-rendering:geometricPrecision; image-rendering:optimizeQuality; fill-rule:evenodd; clip-rule:evenodd"
viewBox="-100 50 550 450"
fill="#ffaf85">
  <path d="M53.86 268.51c0,6.81 0.27,13.63 0.86,20.23 0.59,6.67 1.67,12.71 3.22,18.26 1.56,5.48 3.71,10.12 6.45,13.84 2.74,3.8 6.18,6.18 10.43,7.1l0 54.16c-12.42,-0.71 -22.95,-4.43 -31.65,-11.1 -8.71,-6.75 -15.86,-15.53 -21.44,-26.27 -5.54,-10.75 -9.62,-22.97 -12.2,-36.6 -2.58,-13.7 -3.87,-27.82 -3.87,-42.5l0 -137.05c0,-9.9 0.48,-19.81 1.34,-29.78 0.91,-9.91 2.42,-19.46 4.57,-28.59 2.15,-9.14 4.94,-17.71 8.44,-25.71 3.44,-8.01 7.73,-15.04 12.89,-21.01 5.16,-5.97 11.18,-10.74 18.06,-14.4 6.88,-3.65 14.83,-5.76 23.86,-6.32l0 54.58c-4.46,0.98 -8.01,3.79 -10.8,8.5 -2.8,4.78 -4.95,10.54 -6.4,17.42 -1.45,6.89 -2.47,14.4 -3.01,22.62 -0.48,8.29 -0.75,16.3 -0.75,24.1l0 138.52zm7.85 -112.82c4.03,-2.17 8.16,-3.79 12.52,-4.84 4.35,-0.99 8.81,-1.55 13.32,-1.55 8.39,0 15.86,1.34 22.36,4.08 6.5,2.67 12.14,6.46 16.92,11.38 4.79,4.91 8.76,10.81 12.04,17.49 3.23,6.74 5.86,14.19 7.85,22.48 1.98,8.21 3.44,16.93 4.24,26.2 0.86,9.27 1.29,18.82 1.29,28.73 0,15.24 -1.29,29.99 -3.76,44.32 -2.53,14.33 -6.56,27.19 -12.09,38.5 -5.48,11.31 -12.63,20.51 -21.44,27.6 -8.87,7.03 -19.62,10.96 -32.3,11.81l0 -53.95c4.95,-0.92 8.82,-3.73 11.66,-8.29 2.8,-4.64 4.95,-10.12 6.45,-16.58 1.45,-6.46 2.42,-13.42 2.85,-20.79 0.38,-7.38 0.59,-14.4 0.59,-21.01 0,-7.23 -0.27,-14.47 -0.86,-21.56 -0.59,-7.17 -1.72,-13.56 -3.55,-19.18 -1.77,-5.62 -4.29,-10.18 -7.63,-13.7 -3.27,-3.44 -7.73,-5.19 -13.27,-5.19 -3.06,0 -6.07,0.56 -9.08,1.75 -2.96,1.12 -5.7,2.67 -8.11,4.57l0 -52.27zm20.95 -152.92c10.91,0.7 20.42,3.86 28.48,9.41 8.12,5.55 14.83,12.93 20.15,22.13 5.38,9.2 9.35,19.88 11.99,32.1 2.63,12.23 3.92,25.15 3.92,38.92l0 6.32 -46.43 0c0,-6.32 -0.27,-12.43 -0.8,-18.47 -0.54,-6.04 -1.45,-11.52 -2.85,-16.51 -1.35,-4.92 -3.17,-9.06 -5.48,-12.43 -2.31,-3.38 -5.32,-5.62 -8.98,-6.68l0 -54.79zm164.97 380.17c-12.46,-0.42 -23.16,-3.79 -32.02,-10.12 -8.87,-6.32 -16.18,-14.61 -21.82,-25 -5.64,-10.33 -9.83,-22.34 -12.52,-35.9 -2.69,-13.56 -4.03,-28.03 -4.03,-43.2l0 -151.52c0,-15.45 1.29,-30.06 3.87,-43.69 2.58,-13.63 6.71,-25.64 12.36,-36.04 5.69,-10.32 12.95,-18.61 21.87,-24.79 8.92,-6.19 19.72,-9.49 32.29,-9.91l0 54.79c-4.94,0.85 -8.86,3.23 -11.82,7.17 -2.9,4 -5.16,8.85 -6.66,14.54 -1.56,5.69 -2.53,11.73 -2.9,18.19 -0.43,6.46 -0.65,12.51 -0.65,18.12l0 154.76c0,5.62 0.27,11.66 0.75,18.12 0.54,6.46 1.62,12.5 3.17,18.12 1.56,5.62 3.82,10.47 6.72,14.47 2.85,4.08 6.66,6.54 11.39,7.31l0 54.58zm7.85 -55c4.41,-1.06 8.01,-3.66 10.8,-7.8 2.79,-4.15 4.94,-8.92 6.45,-14.47 1.56,-5.62 2.58,-11.52 3.06,-17.7 0.54,-6.25 0.81,-12.16 0.81,-17.63l0 -154.76c0,-5.47 -0.22,-11.44 -0.7,-17.77 -0.48,-6.39 -1.45,-12.36 -2.9,-17.91 -1.51,-5.55 -3.6,-10.4 -6.4,-14.4 -2.79,-4.07 -6.5,-6.67 -11.12,-7.73l0 -54.79c12.41,0.7 22.94,4.22 31.65,10.4 8.71,6.25 15.85,14.54 21.44,24.79 5.54,10.33 9.62,22.2 12.2,35.76 2.58,13.49 3.87,27.96 3.87,43.27l0 151.52c0,14.96 -1.35,29.15 -4.03,42.57 -2.69,13.49 -6.88,25.36 -12.52,35.61 -5.7,10.26 -12.85,18.62 -21.55,25.01 -8.76,6.39 -19.08,9.98 -31.06,10.82l0 -54.79zm169.27 55c-12.47,-0.42 -23.16,-3.79 -32.03,-10.12 -8.86,-6.32 -16.17,-14.61 -21.82,-25 -5.64,-10.33 -9.83,-22.34 -12.52,-35.9 -2.68,-13.56 -4.03,-28.03 -4.03,-43.2l0 -151.52c0,-15.45 1.29,-30.06 3.87,-43.69 2.58,-13.63 6.72,-25.64 12.36,-36.04 5.7,-10.32 12.95,-18.61 21.87,-24.79 8.92,-6.19 19.72,-9.49 32.3,-9.91l0 54.79c-4.95,0.85 -8.87,3.23 -11.82,7.17 -2.91,4 -5.16,8.85 -6.67,14.54 -1.55,5.69 -2.52,11.73 -2.9,18.19 -0.43,6.46 -0.64,12.51 -0.64,18.12l0 154.76c0,5.62 0.27,11.66 0.75,18.12 0.54,6.46 1.61,12.5 3.17,18.12 1.56,5.62 3.82,10.47 6.72,14.47 2.85,4.08 6.66,6.54 11.39,7.31l0 54.58zm7.84 -55c4.41,-1.06 8.01,-3.66 10.81,-7.8 2.79,-4.15 4.94,-8.92 6.44,-14.47 1.56,-5.62 2.58,-11.52 3.07,-17.7 0.53,-6.25 0.8,-12.16 0.8,-17.63l0 -154.76c0,-5.47 -0.21,-11.44 -0.7,-17.77 -0.48,-6.39 -1.45,-12.36 -2.9,-17.91 -1.5,-5.55 -3.6,-10.4 -6.39,-14.4 -2.8,-4.07 -6.5,-6.67 -11.13,-7.73l0 -54.79c12.42,0.7 22.95,4.22 31.66,10.4 8.7,6.25 15.85,14.54 21.44,24.79 5.53,10.33 9.61,22.2 12.19,35.76 2.58,13.49 3.87,27.96 3.87,43.27l0 151.52c0,14.96 -1.34,29.15 -4.03,42.57 -2.68,13.49 -6.88,25.36 -12.52,35.61 -5.69,10.26 -12.84,18.62 -21.55,25.01 -8.76,6.39 -19.07,9.98 -31.06,10.82l0 -54.79z"/>
</svg>
