<svg xmlns="http://www.w3.org/2000/svg" xml:space="preserve" width="18rem" height="auto" version="1.1" style="shape-rendering:geometricPrecision; text-rendering:geometricPrecision; image-rendering:optimizeQuality; fill-rule:evenodd; clip-rule:evenodd"
viewBox="-100 -50 550 450"
fill="#FFD800">
  <path d="M25.51 374.79l-28.16 0 0 -45.09 73.67 -140.92c3.12,-6.04 6.29,-12.57 9.52,-19.46 3.22,-6.95 6.07,-14.11 8.59,-21.49 2.53,-7.45 4.57,-14.96 6.13,-22.55 1.56,-7.66 2.36,-15.31 2.36,-22.97 0,-5.06 -0.37,-10.19 -1.18,-15.31 -0.8,-5.13 -1.99,-9.91 -3.6,-14.19 -1.66,-4.36 -3.76,-8.08 -6.39,-11.17 -2.64,-3.02 -5.81,-4.99 -9.46,-5.83l0 -54.51c11.12,0.49 20.96,3.3 29.45,8.29 8.49,5.05 15.63,11.87 21.39,20.58 5.8,8.71 10.15,19.18 13.11,31.4 2.9,12.22 4.4,25.78 4.4,40.74 0,10.05 -0.91,19.88 -2.68,29.64 -1.78,9.77 -4.2,19.25 -7.2,28.59 -2.96,9.35 -6.45,18.41 -10.43,27.19 -4.03,8.78 -8.22,17.21 -12.63,25.29 -3.01,6.18 -6.72,13.48 -11.01,21.84 -4.3,8.36 -8.71,16.93 -13.28,25.71 -4.56,8.79 -8.97,17.21 -13.22,25.29 -4.3,8.15 -7.84,14.96 -10.8,20.58l-38.58 68.35zm43.8 -318.98c-3.82,0.84 -6.94,2.74 -9.46,5.76 -2.53,3.02 -4.62,6.74 -6.24,11.1 -1.61,4.42 -2.84,9.27 -3.7,14.54 -0.81,5.27 -1.4,10.6 -1.72,16.01 -0.32,5.41 -0.49,10.75 -0.54,15.95 -0.05,5.27 -0.11,9.83 -0.11,13.84l-47.5 0 0 -19.18c0,-15.87 1.24,-30.63 3.76,-44.11 2.53,-13.56 6.5,-25.29 12.04,-35.2 5.48,-9.97 12.68,-17.84 21.49,-23.67 8.81,-5.83 19.45,-9.06 31.98,-9.55l0 54.51zm0.43 258.08l74.8 0 0 60.9 -109.09 0 34.29 -60.9zm170.07 67.72c-12.46,-0.42 -23.16,-3.8 -32.03,-10.12 -8.86,-6.32 -16.17,-14.61 -21.81,-25.01 -5.64,-10.32 -9.84,-22.33 -12.52,-35.89 -2.69,-13.56 -4.03,-28.03 -4.03,-43.2l0 -151.52c0,-15.46 1.29,-30.07 3.87,-43.69 2.58,-13.63 6.71,-25.64 12.36,-36.04 5.69,-10.33 12.95,-18.61 21.87,-24.8 8.92,-6.18 19.72,-9.48 32.29,-9.9l0 54.79c-4.94,0.84 -8.87,3.23 -11.82,7.16 -2.9,4.01 -5.16,8.86 -6.66,14.55 -1.56,5.69 -2.53,11.73 -2.91,18.19 -0.43,6.46 -0.64,12.5 -0.64,18.12l0 154.75c0,5.62 0.27,11.66 0.75,18.13 0.54,6.46 1.61,12.5 3.17,18.12 1.56,5.62 3.82,10.47 6.72,14.47 2.85,4.07 6.66,6.53 11.39,7.31l0 54.58zm7.85 -55.01c4.4,-1.05 8,-3.65 10.8,-7.79 2.79,-4.15 4.94,-8.92 6.45,-14.47 1.55,-5.62 2.58,-11.52 3.06,-17.71 0.54,-6.25 0.81,-12.15 0.81,-17.63l0 -154.75c0,-5.48 -0.22,-11.45 -0.7,-17.77 -0.49,-6.39 -1.45,-12.36 -2.91,-17.91 -1.5,-5.55 -3.59,-10.4 -6.39,-14.4 -2.79,-4.08 -6.5,-6.68 -11.12,-7.73l0 -54.79c12.41,0.7 22.94,4.21 31.65,10.4 8.7,6.25 15.85,14.54 21.44,24.79 5.53,10.33 9.62,22.2 12.2,35.76 2.58,13.48 3.87,27.95 3.87,43.27l0 151.52c0,14.96 -1.35,29.15 -4.04,42.57 -2.68,13.48 -6.87,25.35 -12.51,35.61 -5.7,10.26 -12.85,18.62 -21.55,25.01 -8.76,6.39 -19.08,9.97 -31.06,10.82l0 -54.8zm169.27 55.01c-12.47,-0.42 -23.16,-3.8 -32.03,-10.12 -8.87,-6.32 -16.17,-14.61 -21.82,-25.01 -5.64,-10.32 -9.83,-22.33 -12.52,-35.89 -2.68,-13.56 -4.03,-28.03 -4.03,-43.2l0 -151.52c0,-15.46 1.29,-30.07 3.87,-43.69 2.58,-13.63 6.72,-25.64 12.36,-36.04 5.7,-10.33 12.95,-18.61 21.87,-24.8 8.92,-6.18 19.72,-9.48 32.3,-9.9l0 54.79c-4.95,0.84 -8.87,3.23 -11.83,7.16 -2.9,4.01 -5.15,8.86 -6.66,14.55 -1.56,5.69 -2.52,11.73 -2.9,18.19 -0.43,6.46 -0.64,12.5 -0.64,18.12l0 154.75c0,5.62 0.26,11.66 0.75,18.13 0.53,6.46 1.61,12.5 3.17,18.12 1.56,5.62 3.81,10.47 6.71,14.47 2.85,4.07 6.67,6.53 11.4,7.31l0 54.58zm7.84 -55.01c4.41,-1.05 8.01,-3.65 10.8,-7.79 2.8,-4.15 4.95,-8.92 6.45,-14.47 1.56,-5.62 2.58,-11.52 3.06,-17.71 0.54,-6.25 0.81,-12.15 0.81,-17.63l0 -154.75c0,-5.48 -0.22,-11.45 -0.7,-17.77 -0.48,-6.39 -1.45,-12.36 -2.9,-17.91 -1.51,-5.55 -3.6,-10.4 -6.39,-14.4 -2.8,-4.08 -6.51,-6.68 -11.13,-7.73l0 -54.79c12.42,0.7 22.95,4.21 31.65,10.4 8.71,6.25 15.85,14.54 21.44,24.79 5.54,10.33 9.62,22.2 12.2,35.76 2.58,13.48 3.87,27.95 3.87,43.27l0 151.52c0,14.96 -1.34,29.15 -4.03,42.57 -2.69,13.48 -6.88,25.35 -12.52,35.61 -5.7,10.26 -12.84,18.62 -21.55,25.01 -8.76,6.39 -19.07,9.97 -31.06,10.82l0 -54.8z"/>
</svg>
